# xmcd
#
# Track frame offsets:
#	150
#	13290
#	23968
#	34814
#
# Disc length: 642 seconds
# Revision: 0
# Processed by: cddbd v1.5.2PL0 Copyright (c) Steve Scherf et al.
# Submitted via: dBpowerAMP V12.0
#
DISCID=2c028004
DTITLE=Wayne Docherty - The Day They Turned The Key
DYEAR=1900
DGENRE=Country
TTITLE0=The Day They Turned The Key
TTITLE1=Jodie
TTITLE2=Country Legend
TTITLE3=Fire of Gidgee Coal
EXTD=
EXTT0=
EXTT1=
EXTT2=
EXTT3=
PLAYORDER=
